<?xml version="1.0" standalone="no"?>
<!DOCTYPE svg PUBLIC "-//W3C//DTD SVG 20010904//EN"
 "http://www.w3.org/TR/2001/REC-SVG-20010904/DTD/svg10.dtd">
<svg version="1.0" xmlns="http://www.w3.org/2000/svg"
 width="613.000000pt" height="613.000000pt" viewBox="0 0 613.000000 613.000000"
 preserveAspectRatio="xMidYMid meet">
<metadata>
Created by potrace 1.11, written by Peter Selinger 2001-2013
</metadata>
<g transform="translate(0.000000,613.000000) scale(0.100000,-0.100000)"
fill="#000000" stroke="none">
<path d="M485 6119 c-212 -49 -385 -207 -458 -419 l-22 -65 -2 -2560 -2 -2560
28 -81 c73 -217 235 -367 451 -418 58 -14 358 -15 2610 -13 2453 2 2547 3
2600 21 216 73 367 232 424 446 21 79 23 5094 2 5180 -31 126 -80 215 -171
305 -47 47 -160 124 -188 129 -7 1 -17 5 -23 9 -6 3 -40 13 -75 22 -56 13
-375 15 -2599 14 -1505 -1 -2551 -5 -2575 -10z m3441 -285 c111 -37 179 -129
183 -248 6 -196 -185 -329 -369 -256 -41 16 -54 18 -64 8 -7 -7 -32 -29 -55
-48 -24 -19 -53 -44 -64 -56 -12 -11 -56 -49 -97 -85 -41 -35 -77 -66 -80 -69
-3 -3 -54 -48 -115 -100 -60 -52 -123 -106 -139 -120 -16 -14 -34 -30 -40 -35
-6 -6 -78 -69 -161 -140 -82 -71 -163 -141 -180 -156 -16 -15 -73 -64 -125
-109 -52 -45 -108 -94 -125 -109 -16 -14 -61 -53 -100 -86 -38 -33 -75 -64
-81 -70 -6 -5 -40 -35 -75 -65 -35 -30 -118 -102 -184 -160 -66 -58 -255 -222
-420 -365 -165 -143 -354 -307 -420 -365 -66 -58 -183 -159 -260 -225 -76 -66
-146 -127 -155 -135 -9 -8 -41 -36 -72 -62 l-56 -47 -46 52 c-25 28 -46 55
-46 58 0 4 26 28 58 55 31 27 73 63 92 80 114 101 168 148 320 279 58 49 107
92 110 95 3 3 37 32 75 65 39 33 72 62 75 65 3 3 54 48 115 100 60 52 115 100
121 106 6 5 35 30 64 55 29 24 58 49 64 55 6 6 52 45 101 88 50 43 117 102
149 130 32 28 68 59 80 69 12 10 46 40 76 66 98 85 383 333 444 385 33 28 64
56 70 61 11 10 109 95 236 205 35 30 82 71 104 91 23 20 115 101 206 179 230
198 272 234 371 321 l86 76 -13 31 c-22 53 -12 149 21 210 29 53 107 122 138
122 9 0 18 4 21 8 9 16 112 13 162 -4z m1437 -2751 c-1 -1171 -2 -2136 -2
-2145 -1 -15 -37 -17 -456 -17 -341 1 -455 3 -456 12 -1 7 -2 972 -3 2145 l-1
2132 460 0 460 0 -2 -2127z m-1226 -477 l0 -1685 -459 1 -458 0 0 1684 0 1684
458 0 459 0 0 -1684z m-1226 737 c0 -35 0 -2394 0 -2410 -1 -16 -910 -16 -912
0 -1 7 -2 558 -3 1225 l-1 1212 457 0 458 0 1 -27z m-1231 -895 c3 -3 5 -348
5 -765 l0 -758 -458 -2 -457 -1 0 766 0 767 452 0 c249 0 455 -3 458 -7z"/>
</g>
</svg>
